<svg width="32" height="32" viewBox="0 0 32 32" fill="none" xmlns="http://www.w3.org/2000/svg">
<path fill-rule="evenodd" clip-rule="evenodd" d="M0 0.0158712V1.39993e-06L16.0134 0C24.8405 0.00721856 31.9946 7.16251 32 15.99C32 15.9933 32 15.9966 32 16C32 16.0034 32 16.0067 32 16.0099C31.996 22.4981 28.1304 28.0827 22.577 30.5901C9.50773 26.569 0.00698336 14.4024 0 0.0158712Z" fill="#FF659C" fill-opacity="0.7"/>
<path d="M16 32C7.16347 32 3.86258e-07 24.8365 0 16C-3.86261e-07 7.16347 7.16347 3.86258e-07 16 0C24.8365 -3.86261e-07 32 7.16347 32 16C32 24.8365 24.8365 32 16 32Z" fill="#FF659C" fill-opacity="0.4"/>
<path d="M19.9688 20.2422V22H12.1875V20.5L15.8672 16.5547C16.237 16.1432 16.5286 15.7812 16.7422 15.4688C16.9557 15.151 17.1094 14.8672 17.2031 14.6172C17.3021 14.362 17.3516 14.1198 17.3516 13.8906C17.3516 13.5469 17.2943 13.2526 17.1797 13.0078C17.0651 12.7578 16.8958 12.5651 16.6719 12.4297C16.4531 12.2943 16.1823 12.2266 15.8594 12.2266C15.5156 12.2266 15.2188 12.3099 14.9688 12.4766C14.724 12.6432 14.5365 12.875 14.4062 13.1719C14.2812 13.4688 14.2188 13.8047 14.2188 14.1797H11.9609C11.9609 13.5026 12.1224 12.8828 12.4453 12.3203C12.7682 11.7526 13.224 11.3021 13.8125 10.9688C14.401 10.6302 15.099 10.4609 15.9062 10.4609C16.7031 10.4609 17.375 10.5911 17.9219 10.8516C18.474 11.1068 18.8906 11.4766 19.1719 11.9609C19.4583 12.4401 19.6016 13.013 19.6016 13.6797C19.6016 14.0547 19.5417 14.4219 19.4219 14.7812C19.3021 15.1354 19.1302 15.4896 18.9062 15.8438C18.6875 16.1927 18.4219 16.5469 18.1094 16.9062C17.7969 17.2656 17.4505 17.638 17.0703 18.0234L15.0938 20.2422H19.9688Z" fill="#C8AA6E"/>
</svg>
