<svg width="32" height="33" viewBox="0 0 32 33" fill="none" xmlns="http://www.w3.org/2000/svg">
<path fill-rule="evenodd" clip-rule="evenodd" d="M0 0.515871V0.500001L16.0134 0.5C24.8405 0.507219 31.9946 7.66251 32 16.49C32 16.4933 32 16.4966 32 16.5C32 16.5034 32 16.5067 32 16.5099C31.996 22.9981 28.1304 28.5827 22.577 31.0901C9.50773 27.069 0.00698336 14.9024 0 0.515871Z" fill="#7D5DFC" fill-opacity="0.7"/>
<path d="M16 32.5C7.16347 32.5 3.86258e-07 25.3365 0 16.5C-3.86261e-07 7.66347 7.16347 0.5 16 0.5C24.8365 0.5 32 7.66347 32 16.5C32 25.3365 24.8365 32.5 16 32.5Z" fill="#6966FB" fill-opacity="0.4"/>
<path d="M14.4922 15.8359H15.6953C16.0807 15.8359 16.3984 15.7708 16.6484 15.6406C16.8984 15.5052 17.0833 15.3177 17.2031 15.0781C17.3281 14.8333 17.3906 14.5495 17.3906 14.2266C17.3906 13.9349 17.3333 13.6771 17.2188 13.4531C17.1094 13.224 16.9401 13.0469 16.7109 12.9219C16.4818 12.7917 16.1927 12.7266 15.8438 12.7266C15.5677 12.7266 15.3125 12.7812 15.0781 12.8906C14.8438 13 14.6562 13.1536 14.5156 13.3516C14.375 13.5495 14.3047 13.7891 14.3047 14.0703H12.0469C12.0469 13.4453 12.2135 12.901 12.5469 12.4375C12.8854 11.974 13.3385 11.612 13.9062 11.3516C14.474 11.0911 15.099 10.9609 15.7812 10.9609C16.5521 10.9609 17.2266 11.0859 17.8047 11.3359C18.3828 11.5807 18.8333 11.9427 19.1562 12.4219C19.4792 12.901 19.6406 13.4948 19.6406 14.2031C19.6406 14.5625 19.5573 14.9115 19.3906 15.25C19.224 15.5833 18.9844 15.8854 18.6719 16.1562C18.3646 16.4219 17.9896 16.6354 17.5469 16.7969C17.1042 16.9531 16.6068 17.0312 16.0547 17.0312H14.4922V15.8359ZM14.4922 17.5469V16.3828H16.0547C16.6745 16.3828 17.2188 16.4531 17.6875 16.5938C18.1562 16.7344 18.5495 16.9375 18.8672 17.2031C19.1849 17.4635 19.4245 17.7734 19.5859 18.1328C19.7474 18.487 19.8281 18.8802 19.8281 19.3125C19.8281 19.8438 19.7266 20.3177 19.5234 20.7344C19.3203 21.1458 19.0339 21.4948 18.6641 21.7812C18.2995 22.0677 17.8724 22.2865 17.3828 22.4375C16.8932 22.5833 16.3594 22.6562 15.7812 22.6562C15.3021 22.6562 14.8307 22.5911 14.3672 22.4609C13.9089 22.3255 13.4922 22.125 13.1172 21.8594C12.7474 21.5885 12.4505 21.25 12.2266 20.8438C12.0078 20.4323 11.8984 19.9453 11.8984 19.3828H14.1562C14.1562 19.6745 14.2292 19.9349 14.375 20.1641C14.5208 20.3932 14.7214 20.5729 14.9766 20.7031C15.237 20.8333 15.526 20.8984 15.8438 20.8984C16.2031 20.8984 16.5104 20.8333 16.7656 20.7031C17.026 20.5677 17.224 20.3802 17.3594 20.1406C17.5 19.8958 17.5703 19.612 17.5703 19.2891C17.5703 18.8724 17.4948 18.5391 17.3438 18.2891C17.1927 18.0339 16.9766 17.8464 16.6953 17.7266C16.4141 17.6068 16.0807 17.5469 15.6953 17.5469H14.4922Z" fill="#C8AA6E"/>
</svg>
