<svg width="24" height="24" viewBox="0 0 24 24" fill="none" xmlns="http://www.w3.org/2000/svg">
<path d="M18.1769 16.3033L15.0153 19.8163V14.4298C15.0153 11.7131 18.4892 9.12134 20.2261 8.16504C18.4931 10.8349 18.1379 14.703 18.1769 16.3033Z" fill="#C8AA6E"/>
<path d="M5.76452 15.6593C5.06194 13.3759 4.24226 9.39458 3.77386 8.92619C5.16456 9.47191 7.80967 10.8624 8.31474 12.4015C7.75575 9.10681 6.58696 3.19115 5.76452 2.36871C8.82671 4.21933 14.4598 10.6324 12.4948 21.4798L5.76452 15.6593Z" fill="#C8AA6E"/>
<path d="M13.0246 8.92619L14.1956 11.8536L15.308 9.86299C15.308 7.42738 17.2206 4.20328 18.1769 2.89568C16.0223 3.31725 13.8443 7.09168 13.0246 8.92619Z" fill="#C8AA6E"/>
</svg>
