<svg width="16" height="17" viewBox="0 0 16 17" fill="none" xmlns="http://www.w3.org/2000/svg">
<path fill-rule="evenodd" clip-rule="evenodd" d="M12.4186 7.9458C12.4186 10.7676 10.1311 13.0551 7.30929 13.0551C4.48751 13.0551 2.2 10.7676 2.2 7.9458C2.2 5.12401 4.48751 2.83651 7.30929 2.83651C10.1311 2.83651 12.4186 5.12401 12.4186 7.9458ZM11.3263 12.8113C10.2352 13.7132 8.83552 14.2551 7.30929 14.2551C3.82477 14.2551 1 11.4303 1 7.9458C1 4.46127 3.82477 1.63651 7.30929 1.63651C10.7938 1.63651 13.6186 4.46127 13.6186 7.9458C13.6186 9.47197 13.0767 10.8716 12.1749 11.9627L15 14.7878L14.1514 15.6364L11.3263 12.8113Z" fill="#B5B5B5"/>
</svg>
