<svg width="24" height="24" viewBox="0 0 24 24" fill="none" xmlns="http://www.w3.org/2000/svg">
<path d="M9.2732 13.2597L6.00747 11.9534L6.98718 9.12309H5.78975C4.74471 9.12309 2.16115 7.38136 1 6.5105H8.83777L10.5795 8.46994L9.2732 13.2597Z" fill="#C8AA6E"/>
<path d="M14.5875 13.2597L17.8533 11.9534L16.8735 9.12309H18.071C19.116 9.12309 21.6996 7.38136 22.8607 6.5105H15.0229L13.2812 8.46994L14.5875 13.2597Z" fill="#C8AA6E"/>
<path fill-rule="evenodd" clip-rule="evenodd" d="M11.9303 8.44283L11.9304 8.4429V8.44275L15.4137 4.3063L14.5428 3H11.9304H11.9302H9.31776L8.4469 4.3063L11.9302 8.44275V8.4429L11.9303 8.44283Z" fill="#C8AA6E"/>
<path fill-rule="evenodd" clip-rule="evenodd" d="M11.9303 9.12311H11.2269L8.88229 19.5353L11.9303 21.7506V9.12311ZM11.9304 9.12312H12.6338L14.9785 19.5353L11.9304 21.7506V9.12312Z" fill="#C8AA6E"/>
</svg>
