<svg width="165" height="32" viewBox="0 0 165 32" fill="none" xmlns="http://www.w3.org/2000/svg">
<path fill-rule="evenodd" clip-rule="evenodd" d="M0 0.0158712V1.39993e-06L16.0134 0C24.8405 0.00721856 31.9946 7.16251 32 15.99C32 15.9933 32 15.9966 32 16C32 16.0034 32 16.0067 32 16.0099C31.996 22.4981 28.1304 28.0827 22.577 30.5901C9.50773 26.569 0.00698336 14.4024 0 0.0158712Z" fill="#4B79F6" fill-opacity="0.7"/>
<path d="M16 32C7.16347 32 3.86258e-07 24.8365 0 16C-3.86261e-07 7.16347 7.16347 3.86258e-07 16 0C24.8365 -3.86261e-07 32 7.16347 32 16C32 24.8365 24.8365 32 16 32Z" fill="#4B79F6" fill-opacity="0.4"/>
<path d="M45.2215 22.4569H52.7287V26.08H40.6519V3.29724H45.2215V22.4569ZM63.6625 26.3737C61.9217 26.3737 60.355 25.9929 58.9624 25.2313C57.5697 24.448 56.4709 23.3491 55.6657 21.9347C54.8824 20.5203 54.4907 18.8883 54.4907 17.0387C54.4907 15.1891 54.8933 13.5571 55.6984 12.1427C56.5253 10.7283 57.6459 9.64028 59.0603 8.87868C60.4747 8.09532 62.0523 7.70364 63.7931 7.70364C65.5339 7.70364 67.1115 8.09532 68.5259 8.87868C69.9403 9.64028 71.05 10.7283 71.8551 12.1427C72.682 13.5571 73.0955 15.1891 73.0955 17.0387C73.0955 18.8883 72.6711 20.5203 71.8225 21.9347C70.9956 23.3491 69.8641 24.448 68.4279 25.2313C67.0135 25.9929 65.4251 26.3737 63.6625 26.3737ZM63.6625 22.3916C64.4894 22.3916 65.2619 22.1958 65.9799 21.8041C66.7198 21.3907 67.3073 20.7814 67.7425 19.9763C68.1777 19.1712 68.3953 18.192 68.3953 17.0387C68.3953 15.3196 67.9383 14.0032 67.0244 13.0892C66.1323 12.1536 65.0334 11.6857 63.7278 11.6857C62.4222 11.6857 61.3233 12.1536 60.4312 13.0892C59.5608 14.0032 59.1256 15.3196 59.1256 17.0387C59.1256 18.7577 59.5499 20.0851 60.3985 21.0208C61.2689 21.9347 62.3569 22.3916 63.6625 22.3916ZM81.0172 22.4569H88.5244V26.08H76.4476V3.29724H81.0172V22.4569ZM107.17 3.29724C109.564 3.29724 111.664 3.76508 113.47 4.70076C115.298 5.63644 116.701 6.97468 117.68 8.71548C118.681 10.4345 119.182 12.4364 119.182 14.7212C119.182 17.006 118.681 19.008 117.68 20.727C116.701 22.4243 115.298 23.7408 113.47 24.6764C111.664 25.6121 109.564 26.08 107.17 26.08H99.2061V3.29724H107.17ZM107.007 22.1958C109.401 22.1958 111.25 21.543 112.556 20.2374C113.861 18.9318 114.514 17.0931 114.514 14.7212C114.514 12.3494 113.861 10.4998 112.556 9.17244C111.25 7.82332 109.401 7.14876 107.007 7.14876H103.776V22.1958H107.007ZM139.673 7.9974V26.08H135.071V23.7952C134.483 24.5785 133.711 25.1987 132.754 25.6556C131.818 26.0908 130.795 26.3084 129.685 26.3084C128.271 26.3084 127.02 26.0147 125.932 25.4272C124.844 24.8179 123.984 23.9366 123.353 22.7833C122.744 21.6083 122.439 20.2156 122.439 18.6054V7.9974H127.009V17.9526C127.009 19.3888 127.368 20.4985 128.086 21.2819C128.804 22.0435 129.783 22.4243 131.024 22.4243C132.286 22.4243 133.276 22.0435 133.994 21.2819C134.712 20.4985 135.071 19.3888 135.071 17.9526V7.9974H139.673ZM152.211 26.3737C150.47 26.3737 148.904 25.9929 147.511 25.2313C146.118 24.448 145.02 23.3491 144.214 21.9347C143.431 20.5203 143.039 18.8883 143.039 17.0387C143.039 15.1891 143.442 13.5571 144.247 12.1427C145.074 10.7283 146.195 9.64028 147.609 8.87868C149.023 8.09532 150.601 7.70364 152.342 7.70364C154.083 7.70364 155.66 8.09532 157.075 8.87868C158.489 9.64028 159.599 10.7283 160.404 12.1427C161.231 13.5571 161.644 15.1891 161.644 17.0387C161.644 18.8883 161.22 20.5203 160.371 21.9347C159.544 23.3491 158.413 24.448 156.977 25.2313C155.562 25.9929 153.974 26.3737 152.211 26.3737ZM152.211 22.3916C153.038 22.3916 153.811 22.1958 154.529 21.8041C155.269 21.3907 155.856 20.7814 156.291 19.9763C156.726 19.1712 156.944 18.192 156.944 17.0387C156.944 15.3196 156.487 14.0032 155.573 13.0892C154.681 12.1536 153.582 11.6857 152.277 11.6857C150.971 11.6857 149.872 12.1536 148.98 13.0892C148.11 14.0032 147.674 15.3196 147.674 17.0387C147.674 18.7577 148.099 20.0851 148.947 21.0208C149.818 21.9347 150.906 22.3916 152.211 22.3916Z" fill="#F9F9F9"/>
</svg>
