<svg width="36" height="36" viewBox="0 0 36 36" fill="none" xmlns="http://www.w3.org/2000/svg">
<rect width="36" height="36" fill="#C8AA6E" fill-opacity="0.2"/>
<path fill-rule="evenodd" clip-rule="evenodd" d="M15.4653 14.2893C15.6608 13.9435 16.0968 13.3537 16.6905 12.8681C17.285 12.3819 17.9068 12.1034 18.5109 12.1034C19.3432 12.1034 20.1444 12.556 20.5966 13.1213C20.8187 13.3989 20.8852 13.6152 20.8953 13.7124C20.896 13.7193 20.8964 13.7252 20.8966 13.7301C20.629 13.9973 20.3282 14.2784 19.9951 14.5897C19.9169 14.6628 19.8369 14.7375 19.7551 14.8141C19.3352 15.2077 18.8796 15.6408 18.4632 16.0837C18.0515 16.5218 17.6353 17.0139 17.3155 17.5353C17.0051 18.0413 16.7006 18.7104 16.7006 19.474V21.0257H19.804V19.4878C19.8042 19.4873 19.8044 19.4863 19.8048 19.4847C19.8098 19.465 19.8358 19.3619 19.9609 19.158C20.1219 18.8955 20.3766 18.5794 20.7245 18.2093C21.0678 17.844 21.4608 17.4689 21.8773 17.0785C21.9499 17.0106 22.0236 16.9417 22.098 16.8722C22.4367 16.5557 22.7888 16.2268 23.0995 15.9161C23.82 15.1956 24.0736 14.273 23.9821 13.3917C23.8952 12.5555 23.509 11.7939 23.02 11.1826C22.0498 9.96986 20.3941 9 18.5109 9C16.9426 9 15.6463 9.71294 14.7257 10.4659C13.8044 11.2195 13.1284 12.1168 12.7635 12.7623L12 14.1131L14.7017 15.6402L15.4653 14.2893ZM18.2263 22.4481L15.6661 25.0083L18.2263 27.5685L20.7865 25.0083L18.2263 22.4481Z" fill="#C8AA6E"/>
</svg>
