<svg width="24" height="24" viewBox="0 0 24 24" fill="none" xmlns="http://www.w3.org/2000/svg">
<path d="M16.0404 14.815L13.9723 17.1129V13.5894C13.9723 11.8124 16.2446 10.1171 17.3808 9.49158C16.2472 11.238 16.0148 13.7682 16.0404 14.815Z" fill="#C8AA6E"/>
<path d="M7.92127 14.3937C7.46169 12.9001 6.92552 10.2958 6.61914 9.98944C7.52882 10.3464 9.25903 11.2559 9.58941 12.2627C9.22376 10.1076 8.45924 6.23805 7.92127 5.70007C9.9243 6.91059 13.609 11.1055 12.3237 18.201L7.92127 14.3937Z" fill="#C8AA6E"/>
<path d="M12.6702 9.98944L13.4362 11.9043L14.1638 10.6022C14.1638 9.00904 15.4149 6.9001 16.0404 6.04477C14.6311 6.32053 13.2064 8.78945 12.6702 9.98944Z" fill="#C8AA6E"/>
<rect x="0.869565" y="0.869565" width="22.2609" height="22.2609" rx="6.08696" stroke="#C8AA6E" stroke-width="1.73913"/>
</svg>
