<svg width="24" height="24" viewBox="0 0 24 24" fill="none" xmlns="http://www.w3.org/2000/svg">
<path d="M10.2144 12.5941L8.01993 11.7163L8.67827 9.81444H7.87363C7.17139 9.81444 5.4353 8.64404 4.65503 8.05884H9.92183L11.0922 9.37554L10.2144 12.5941Z" fill="#C8AA6E"/>
<path d="M13.7854 12.5941L15.9799 11.7163L15.3216 9.81444H16.1262C16.8285 9.81444 18.5646 8.64404 19.3448 8.05884H14.078L12.9076 9.37554L13.7854 12.5941Z" fill="#C8AA6E"/>
<path fill-rule="evenodd" clip-rule="evenodd" d="M12 9.35745V5.69995H10.2444L9.65918 6.57775L12 9.35745ZM12 9.35745V5.69995H13.7556L14.3408 6.57775L12 9.35745Z" fill="#C8AA6E"/>
<path fill-rule="evenodd" clip-rule="evenodd" d="M12 9.81445H11.5273L9.95178 16.8112L12 18.2999V9.81445ZM12.0001 9.81449H12.4727L14.0483 16.8112L12.0001 18.2999V9.81449Z" fill="#C8AA6E"/>
<rect x="0.869565" y="0.869565" width="22.2609" height="22.2609" rx="6.08696" stroke="#C8AA6E" stroke-width="1.73913"/>
</svg>
