<svg width="42" height="22" viewBox="0 0 42 22" fill="none" xmlns="http://www.w3.org/2000/svg">
<rect width="42" height="22" rx="11" fill="#466CD2"/>
<path d="M6.94434 7.17969V15H5.90771V7.17969H6.94434ZM11.6655 7.17969L8.41602 10.8267L6.58984 12.7227L6.41797 11.6162L7.79297 10.1016L10.4194 7.17969H11.6655ZM10.6665 15L7.77148 11.1865L8.38916 10.3647L11.9019 15H10.6665ZM18.8841 10.8428V11.3369C18.8841 11.9242 18.8107 12.4505 18.6638 12.916C18.517 13.3815 18.3058 13.7772 18.0301 14.103C17.7543 14.4289 17.4231 14.6777 17.0364 14.8496C16.6533 15.0215 16.2236 15.1074 15.7473 15.1074C15.2854 15.1074 14.8611 15.0215 14.4744 14.8496C14.0913 14.6777 13.7582 14.4289 13.4754 14.103C13.1961 13.7772 12.9794 13.3815 12.8255 12.916C12.6715 12.4505 12.5945 11.9242 12.5945 11.3369V10.8428C12.5945 10.2555 12.6697 9.73096 12.8201 9.26904C12.9741 8.80355 13.1907 8.40788 13.47 8.08203C13.7493 7.7526 14.0805 7.50195 14.4637 7.33008C14.8504 7.1582 15.2747 7.07227 15.7366 7.07227C16.2128 7.07227 16.6425 7.1582 17.0257 7.33008C17.4124 7.50195 17.7436 7.7526 18.0193 8.08203C18.2986 8.40788 18.5117 8.80355 18.6585 9.26904C18.8089 9.73096 18.8841 10.2555 18.8841 10.8428ZM17.8582 11.3369V10.832C17.8582 10.3665 17.8098 9.95475 17.7132 9.59668C17.6201 9.23861 17.4822 8.93783 17.2996 8.69434C17.117 8.45085 16.8932 8.26644 16.6282 8.14111C16.3668 8.01579 16.0696 7.95312 15.7366 7.95312C15.4143 7.95312 15.1225 8.01579 14.8611 8.14111C14.6033 8.26644 14.3813 8.45085 14.1951 8.69434C14.0125 8.93783 13.871 9.23861 13.7708 9.59668C13.6705 9.95475 13.6204 10.3665 13.6204 10.832V11.3369C13.6204 11.806 13.6705 12.2214 13.7708 12.583C13.871 12.9411 14.0143 13.2437 14.2005 13.4907C14.3902 13.7342 14.614 13.9186 14.8719 14.0439C15.1332 14.1693 15.4251 14.2319 15.7473 14.2319C16.0839 14.2319 16.3829 14.1693 16.6443 14.0439C16.9057 13.9186 17.1259 13.7342 17.305 13.4907C17.4876 13.2437 17.6254 12.9411 17.7185 12.583C17.8116 12.2214 17.8582 11.806 17.8582 11.3369Z" fill="#E5E5E5"/>
<circle cx="31" cy="11" r="7" fill="#E5E5E5"/>
</svg>
